# xmcd
#
# Track frame offsets:
#	150
#	10820
#	22822
#	34175
#	43317
#	57362
#	67377
#	78737
#	87142
#	98575
#	121885
#	137245
#	148867
#	159130
#	170310
#	180985
#	190930
#	206130
#	217852
#	231235
#	245852
#	254742
#	263417
#	272322
#	282682
#	293385
#	307275
#	319742
#	332197
#	342745
#
# Disc length: 4719 seconds
#
# Revision: 1
# Processed by: cddbd v1.5.2PL0 Copyright (c) Steve Scherf et al.
# Submitted via: audiograbber 1.83.01
#
DISCID=c8126d1e
DTITLE=Nashville Dulcimers - 30 Dulcimer Cllassics
DYEAR=1900
DGENRE=Instrumental
TTITLE0=Wildwood Flower
TTITLE1=South Wind Waltz
TTITLE2=When I Get Too Old To Dream
TTITLE3=Beneath The Weeping Willow
TTITLE4=Cherokee Shuffle
TTITLE5=Banks Of The Ohio
TTITLE6=Where The Roses Never Fade
TTITLE7=Red Wing
TTITLE8=Bully Of The Town
TTITLE9=Waltz Medley
TTITLE10=Rose Of Sharon
TTITLE11=Lorena
TTITLE12=Blues Stay Away From Me
TTITLE13=What A Friend We Have In Jesus
TTITLE14=Silent Night
TTITLE15=Moonlight And Roses
TTITLE16=Gold Rush
TTITLE17=Cajun's Waltz
TTITLE18=I'll Be All Smiles Tonight
TTITLE19=Storm On The Ocean
TTITLE20=Keep On The Sunny Side
TTITLE21=Oh Them Golden Slippers
TTITLE22=Old Spinning Wheel
TTITLE23=Sweet Bunch Of Daisies
TTITLE24=Whiskey Before Breakfast
TTITLE25=Life's Railway To Heaven
TTITLE26=Chinese Breakdown
TTITLE27=Flop Eared Mule
TTITLE28=Seneca Square Dance
TTITLE29=Silver Bells
EXTD=
EXTT0=
EXTT1=
EXTT2=
EXTT3=
EXTT4=
EXTT5=
EXTT6=
EXTT7=
EXTT8=
EXTT9=
EXTT10=
EXTT11=
EXTT12=
EXTT13=
EXTT14=
EXTT15=
EXTT16=
EXTT17=
EXTT18=
EXTT19=
EXTT20=
EXTT21=
EXTT22=
EXTT23=
EXTT24=
EXTT25=
EXTT26=
EXTT27=
EXTT28=
EXTT29=
PLAYORDER=
